<svg id="visual" viewBox="0 0 1920 1080" width="1920" height="1080" xmlns="http://www.w3.org/2000/svg" xmlns:xlink="http://www.w3.org/1999/xlink" version="1.1"><rect x="0" y="0" width="1920" height="1080" fill="#d1b5ff"></rect><path d="M0 757L17.8 757.2C35.7 757.3 71.3 757.7 106.8 755.8C142.3 754 177.7 750 213.2 764.5C248.7 779 284.3 812 320 822.7C355.7 833.3 391.3 821.7 426.8 818C462.3 814.3 497.7 818.7 533.2 823.7C568.7 828.7 604.3 834.3 640 828.8C675.7 823.3 711.3 806.7 746.8 801C782.3 795.3 817.7 800.7 853.2 797C888.7 793.3 924.3 780.7 960 789.3C995.7 798 1031.3 828 1066.8 834.8C1102.3 841.7 1137.7 825.3 1173.2 817.3C1208.7 809.3 1244.3 809.7 1280 801.3C1315.7 793 1351.3 776 1386.8 782.2C1422.3 788.3 1457.7 817.7 1493.2 825.7C1528.7 833.7 1564.3 820.3 1600 818.5C1635.7 816.7 1671.3 826.3 1706.8 827C1742.3 827.7 1777.7 819.3 1813.2 819.2C1848.7 819 1884.3 827 1902.2 831L1920 835L1920 1081L1902.2 1081C1884.3 1081 1848.7 1081 1813.2 1081C1777.7 1081 1742.3 1081 1706.8 1081C1671.3 1081 1635.7 1081 1600 1081C1564.3 1081 1528.7 1081 1493.2 1081C1457.7 1081 1422.3 1081 1386.8 1081C1351.3 1081 1315.7 1081 1280 1081C1244.3 1081 1208.7 1081 1173.2 1081C1137.7 1081 1102.3 1081 1066.8 1081C1031.3 1081 995.7 1081 960 1081C924.3 1081 888.7 1081 853.2 1081C817.7 1081 782.3 1081 746.8 1081C711.3 1081 675.7 1081 640 1081C604.3 1081 568.7 1081 533.2 1081C497.7 1081 462.3 1081 426.8 1081C391.3 1081 355.7 1081 320 1081C284.3 1081 248.7 1081 213.2 1081C177.7 1081 142.3 1081 106.8 1081C71.3 1081 35.7 1081 17.8 1081L0 1081Z" fill="#ffb9f2"></path><path d="M0 877L17.8 871.3C35.7 865.7 71.3 854.3 106.8 847.5C142.3 840.7 177.7 838.3 213.2 842.3C248.7 846.3 284.3 856.7 320 861.2C355.7 865.7 391.3 864.3 426.8 859.7C462.3 855 497.7 847 533.2 850C568.7 853 604.3 867 640 874.5C675.7 882 711.3 883 746.8 876.7C782.3 870.3 817.7 856.7 853.2 849.2C888.7 841.7 924.3 840.3 960 844.3C995.7 848.3 1031.3 857.7 1066.8 866.7C1102.3 875.7 1137.7 884.3 1173.2 883.8C1208.7 883.3 1244.3 873.7 1280 868.8C1315.7 864 1351.3 864 1386.8 865.8C1422.3 867.7 1457.7 871.3 1493.2 876.8C1528.7 882.3 1564.3 889.7 1600 886.5C1635.7 883.3 1671.3 869.7 1706.8 861.3C1742.3 853 1777.7 850 1813.2 844.8C1848.7 839.7 1884.3 832.3 1902.2 828.7L1920 825L1920 1081L1902.2 1081C1884.3 1081 1848.7 1081 1813.2 1081C1777.7 1081 1742.3 1081 1706.8 1081C1671.3 1081 1635.7 1081 1600 1081C1564.3 1081 1528.7 1081 1493.2 1081C1457.7 1081 1422.3 1081 1386.8 1081C1351.3 1081 1315.7 1081 1280 1081C1244.3 1081 1208.7 1081 1173.2 1081C1137.7 1081 1102.3 1081 1066.8 1081C1031.3 1081 995.7 1081 960 1081C924.3 1081 888.7 1081 853.2 1081C817.7 1081 782.3 1081 746.8 1081C711.3 1081 675.7 1081 640 1081C604.3 1081 568.7 1081 533.2 1081C497.7 1081 462.3 1081 426.8 1081C391.3 1081 355.7 1081 320 1081C284.3 1081 248.7 1081 213.2 1081C177.7 1081 142.3 1081 106.8 1081C71.3 1081 35.7 1081 17.8 1081L0 1081Z" fill="#c67cc2"></path><path d="M0 894L17.8 901.2C35.7 908.3 71.3 922.7 106.8 934.2C142.3 945.7 177.7 954.3 213.2 954C248.7 953.7 284.3 944.3 320 937C355.7 929.7 391.3 924.3 426.8 916.3C462.3 908.3 497.7 897.7 533.2 901.3C568.7 905 604.3 923 640 926.5C675.7 930 711.3 919 746.8 918.3C782.3 917.7 817.7 927.3 853.2 931.2C888.7 935 924.3 933 960 935.7C995.7 938.3 1031.3 945.7 1066.8 946.5C1102.3 947.3 1137.7 941.7 1173.2 932.7C1208.7 923.7 1244.3 911.3 1280 906.7C1315.7 902 1351.3 905 1386.8 907.8C1422.3 910.7 1457.7 913.3 1493.2 911.5C1528.7 909.7 1564.3 903.3 1600 912C1635.7 920.7 1671.3 944.3 1706.8 954C1742.3 963.7 1777.7 959.3 1813.2 956.2C1848.7 953 1884.3 951 1902.2 950L1920 949L1920 1081L1902.2 1081C1884.3 1081 1848.7 1081 1813.2 1081C1777.7 1081 1742.3 1081 1706.8 1081C1671.3 1081 1635.7 1081 1600 1081C1564.3 1081 1528.7 1081 1493.2 1081C1457.7 1081 1422.3 1081 1386.8 1081C1351.3 1081 1315.7 1081 1280 1081C1244.3 1081 1208.7 1081 1173.2 1081C1137.7 1081 1102.3 1081 1066.8 1081C1031.3 1081 995.7 1081 960 1081C924.3 1081 888.7 1081 853.2 1081C817.7 1081 782.3 1081 746.8 1081C711.3 1081 675.7 1081 640 1081C604.3 1081 568.7 1081 533.2 1081C497.7 1081 462.3 1081 426.8 1081C391.3 1081 355.7 1081 320 1081C284.3 1081 248.7 1081 213.2 1081C177.7 1081 142.3 1081 106.8 1081C71.3 1081 35.7 1081 17.8 1081L0 1081Z" fill="#8e4395"></path><path d="M0 994L17.8 991.2C35.7 988.3 71.3 982.7 106.8 987.3C142.3 992 177.7 1007 213.2 1014.3C248.7 1021.7 284.3 1021.3 320 1019.3C355.7 1017.3 391.3 1013.7 426.8 1014.5C462.3 1015.3 497.7 1020.7 533.2 1017.8C568.7 1015 604.3 1004 640 994.8C675.7 985.7 711.3 978.3 746.8 975.5C782.3 972.7 817.7 974.3 853.2 973.5C888.7 972.7 924.3 969.3 960 966.5C995.7 963.7 1031.3 961.3 1066.8 962C1102.3 962.7 1137.7 966.3 1173.2 976.5C1208.7 986.7 1244.3 1003.3 1280 1006.2C1315.7 1009 1351.3 998 1386.8 994.7C1422.3 991.3 1457.7 995.7 1493.2 1000.5C1528.7 1005.3 1564.3 1010.7 1600 1010.2C1635.7 1009.7 1671.3 1003.3 1706.8 1004.2C1742.3 1005 1777.7 1013 1813.2 1012C1848.7 1011 1884.3 1001 1902.2 996L1920 991L1920 1081L1902.2 1081C1884.3 1081 1848.7 1081 1813.2 1081C1777.7 1081 1742.3 1081 1706.8 1081C1671.3 1081 1635.7 1081 1600 1081C1564.3 1081 1528.7 1081 1493.2 1081C1457.7 1081 1422.3 1081 1386.8 1081C1351.3 1081 1315.7 1081 1280 1081C1244.3 1081 1208.7 1081 1173.2 1081C1137.7 1081 1102.3 1081 1066.8 1081C1031.3 1081 995.7 1081 960 1081C924.3 1081 888.7 1081 853.2 1081C817.7 1081 782.3 1081 746.8 1081C711.3 1081 675.7 1081 640 1081C604.3 1081 568.7 1081 533.2 1081C497.7 1081 462.3 1081 426.8 1081C391.3 1081 355.7 1081 320 1081C284.3 1081 248.7 1081 213.2 1081C177.7 1081 142.3 1081 106.8 1081C71.3 1081 35.7 1081 17.8 1081L0 1081Z" fill="#56006a"></path></svg>